<?xml version="1.0" encoding="utf-8"?>
<!-- Generator: Adobe Illustrator 24.1.2, SVG Export Plug-In . SVG Version: 6.00 Build 0)  -->
<svg version="1.1" id="Layer_1" xmlns="http://www.w3.org/2000/svg" xmlns:xlink="http://www.w3.org/1999/xlink" x="0px" y="0px"
	 viewBox="0 0 221.54 168.21" style="enable-background:new 0 0 221.54 168.21;" xml:space="preserve">
<style type="text/css">
	.st0{fill:#FF5F00;}
</style>
<g>
	<polygon class="st0" points="95.44,156.9 95.44,156.95 95.42,156.95 	"/>
	<path class="st0" d="M221.54,10.86l-0.99,2.47l-2.24,5.64l-13.46,33.83L163.4,156.95H95.44v-0.05c0.02-0.18,0.05-0.38,0.05-0.56
		c1.87-17.28-0.53-34.46-6.56-50.29c-0.05-0.16-0.11-0.31-0.18-0.48c-0.18-0.48-0.36-0.97-0.56-1.45l0.02-0.03h-0.02
		c-8.75-21.83-24.43-40.95-45.36-53.94l15.72-39.47c7.07,1.04,14.14,2.78,21.14,5.21c2.68,0.94,5.29,1.96,7.86,3.06
		c10.24,4.41,19.55,10.16,27.78,16.97c0.3,0.25,0.58,0.48,0.85,0.72c7.17,6.03,13.48,12.86,18.86,20.32
		c0.05,0.05,0.08,0.1,0.12,0.15l2.22-5.56l12.97-32.6l3.22-8.1H221.54z"/>
	<polygon class="st0" points="58.55,10.69 42.83,50.16 58.53,10.69 	"/>
	<polygon class="st0" points="218.34,18.96 163.43,156.95 163.4,156.95 204.86,52.79 218.32,18.96 	"/>
	<polyline class="st0" points="95.42,156.95 95.44,156.95 163.4,156.95 163.43,156.95 	"/>
	<line class="st0" x1="73.85" y1="143.55" x2="68.53" y2="156.95"/>
	<polygon class="st0" points="88.57,106.06 68.3,156.95 0.32,156.95 20.57,106.06 	"/>
	<line class="st0" x1="88.75" y1="105.58" x2="88.57" y2="106.06"/>
	<polyline class="st0" points="163.4,156.95 95.44,156.95 95.42,156.95 	"/>
	<line class="st0" x1="68.53" y1="156.95" x2="68.3" y2="156.95"/>
	<line class="st0" x1="88.93" y1="106.06" x2="88.57" y2="106.06"/>
</g>
</svg>
