<?xml version="1.0" encoding="utf-8"?>
<!-- Generator: Adobe Illustrator 24.1.2, SVG Export Plug-In . SVG Version: 6.00 Build 0)  -->
<svg version="1.1" id="Layer_1" xmlns="http://www.w3.org/2000/svg" xmlns:xlink="http://www.w3.org/1999/xlink" x="0px" y="0px"
	 viewBox="0 0 1000 168.21" style="enable-background:new 0 0 1000 168.21;" xml:space="preserve">
<style type="text/css">
	.st0{fill:#FF5F00;}
</style>
<g>
	<g>
		<polygon class="st0" points="95.44,156.9 95.44,156.95 95.42,156.95 		"/>
		<path class="st0" d="M221.54,10.86l-0.99,2.47l-2.24,5.64l-13.46,33.83L163.4,156.95H95.44v-0.05c0.02-0.18,0.05-0.38,0.05-0.56
			c1.87-17.28-0.53-34.46-6.56-50.29c-0.05-0.16-0.11-0.31-0.18-0.48c-0.18-0.48-0.36-0.97-0.56-1.45l0.02-0.03h-0.02
			c-8.75-21.83-24.43-40.95-45.36-53.94l15.72-39.47c7.07,1.04,14.14,2.78,21.14,5.21c2.68,0.94,5.29,1.96,7.86,3.06
			c10.24,4.41,19.55,10.16,27.78,16.97c0.3,0.25,0.58,0.48,0.85,0.72c7.17,6.03,13.48,12.86,18.86,20.32
			c0.05,0.05,0.08,0.1,0.12,0.15l2.22-5.56l12.97-32.6l3.22-8.1H221.54z"/>
		<polygon class="st0" points="58.55,10.69 42.83,50.16 58.53,10.69 		"/>
		<polygon class="st0" points="218.34,18.96 163.43,156.95 163.4,156.95 204.86,52.79 218.32,18.96 		"/>
		<polyline class="st0" points="95.42,156.95 95.44,156.95 163.4,156.95 163.43,156.95 		"/>
		<line class="st0" x1="73.85" y1="143.55" x2="68.53" y2="156.95"/>
		<polygon class="st0" points="88.57,106.06 68.3,156.95 0.32,156.95 20.57,106.06 		"/>
		<line class="st0" x1="88.75" y1="105.58" x2="88.57" y2="106.06"/>
		<polyline class="st0" points="163.4,156.95 95.44,156.95 95.42,156.95 		"/>
		<line class="st0" x1="68.53" y1="156.95" x2="68.3" y2="156.95"/>
		<line class="st0" x1="88.93" y1="106.06" x2="88.57" y2="106.06"/>
	</g>
	<g>
		<path class="st0" d="M255.57,154.54V30.43h28.3l47.91,64.34h0.69V30.43h34.41v124.12h-27.95l-48.25-65.37h-0.69v65.37H255.57z"/>
		<path class="st0" d="M478.94,154.54h-34.41v-18.66h-0.69c-3.79,12.9-12.64,20.56-26.84,20.56c-20.39,0-35.35-13.33-35.35-35.95
			v-60.9h35.27v52.98c0,10.06,5.42,15.4,13.68,15.4c7.91,0,13.07-6.11,13.07-15.31V59.59h35.27V154.54z"/>
		<path class="st0" d="M535.02,57.18c27.7,0,44.3,12.39,44.3,33.12h-32c0-6.19-4.9-10.06-12.56-10.06c-6.36,0-10.49,2.58-10.49,6.54
			c0,2.92,3.1,5.08,9.2,6.19l21.42,4.21c18.84,3.7,27.27,11.78,27.27,26.23c0,20.64-18.58,33.54-46.36,33.54
			c-29.67,0-46.19-12.99-47.39-33.2h34.06c0.69,6.28,5.85,10.15,13.76,10.15c6.88,0,11.01-2.32,11.01-6.28
			c0-3.01-2.49-4.73-8.95-5.94l-18.32-3.61c-19.18-3.79-29.42-13.93-29.42-28.99C490.55,69.31,507.33,57.18,535.02,57.18z"/>
		<path class="st0" d="M588.09,126.93c0-18.23,14.02-28.13,39.39-29.67l20.82-1.29v-4.64c0-6.37-4.82-9.81-11.44-9.81
			c-7.22,0-11.87,3.96-12.39,8.77h-31.48c0.86-20.3,18.06-33.12,45.76-33.12c26.32,0,43.95,13.16,43.95,32.43v64.94H648.3v-12.73
			h-0.69c-4.99,9.29-16.51,14.11-27.52,14.11C602.8,155.92,588.09,144.05,588.09,126.93z M648.3,121v-6.19l-14.97,1.03
			c-6.71,0.52-10.49,3.7-10.49,8.34c0,5.16,4.21,8.17,10.41,8.17C641.07,132.35,648.3,127.97,648.3,121z"/>
		<path class="st0" d="M695.95,59.59h34.4v18.67h0.69c4.82-13.33,14.71-20.56,29.16-20.56c21.33,0,33.03,13.25,33.03,36.04v60.81
			h-35.27v-52.98c0-9.55-4.47-15.4-13.33-15.4c-8.34,0-13.42,6.45-13.42,15.31v53.07h-35.27V59.59z"/>
		<path class="st0" d="M848.88,57.18c27.7,0,44.3,12.39,44.3,33.12h-32c0-6.19-4.9-10.06-12.56-10.06c-6.36,0-10.49,2.58-10.49,6.54
			c0,2.92,3.1,5.08,9.2,6.19l21.42,4.21c18.84,3.7,27.27,11.78,27.27,26.23c0,20.64-18.58,33.54-46.36,33.54
			c-29.67,0-46.19-12.99-47.39-33.2h34.06c0.69,6.28,5.85,10.15,13.76,10.15c6.88,0,11.01-2.32,11.01-6.28
			c0-3.01-2.49-4.73-8.95-5.94l-18.32-3.61c-19.18-3.79-29.42-13.93-29.42-28.99C804.41,69.31,821.18,57.18,848.88,57.18z"/>
		<path class="st0" d="M999.57,123.75c-2.92,20.47-20.81,33.2-46.88,33.2c-31.14,0-49.63-18.49-49.63-49.37
			c0-31.05,18.66-50.4,48.51-50.4c29.42,0,48.43,18.75,48.43,47.82v9.55h-62.96v2.24c0,9.29,6.71,16,16.17,16
			c7.14,0,12.9-3.35,14.97-9.03H999.57z M937.55,95.45h29.59c-0.6-8.52-6.54-14.02-14.79-14.02
			C944.35,81.43,938.24,87.28,937.55,95.45z"/>
	</g>
</g>
</svg>
